<svg xmlns="http://www.w3.org/2000/svg" viewBox="0 0 950 320"><path fill="#FFC8C8" fill-opacity="1" d="M0,192L26.7,170.7C53.3,149,107,107,160,106.7C213.3,107,267,149,320,176C373.3,203,427,213,480,213.3C533.3,213,587,203,640,218.7C693.3,235,747,277,800,272C853.3,267,907,213,960,170.7C1013.3,128,1067,96,1120,106.7C1173.3,117,1227,171,1280,208C1333.3,245,1387,267,1413,277.3L1440,288L1440,320L1413.3,320C1386.7,320,1333,320,1280,320C1226.7,320,1173,320,1120,320C1066.7,320,1013,320,960,320C906.7,320,853,320,800,320C746.7,320,693,320,640,320C586.7,320,533,320,480,320C426.7,320,373,320,320,320C266.7,320,213,320,160,320C106.7,320,53,320,27,320L0,320Z"></path></svg>